<mxfile host="65bd71144e">
    <diagram id="LNtHYfR_SqBU5GvVhsjg" name="Page-1">
        <mxGraphModel dx="2589" dy="1229" grid="1" gridSize="10" guides="1" tooltips="1" connect="1" arrows="1" fold="1" page="1" pageScale="1" pageWidth="1700" pageHeight="1100" background="#808080" math="0" shadow="1">
            <root>
                <object label="" id="0">
                    <mxCell/>
                </object>
                <mxCell id="1" parent="0"/>
                <mxCell id="8" value="Discovery Server&lt;br style=&quot;font-size: 19px;&quot;&gt;" style="rounded=0;whiteSpace=wrap;html=1;labelBackgroundColor=none;fillColor=none;labelPosition=center;verticalLabelPosition=bottom;align=center;verticalAlign=top;fontSize=19;" parent="1" vertex="1">
                    <mxGeometry x="210" y="150" width="730" height="660" as="geometry"/>
                </mxCell>
                <mxCell id="3" value="React App&lt;br&gt;" style="shape=umlActor;verticalLabelPosition=bottom;verticalAlign=top;html=1;outlineConnect=0;labelBackgroundColor=none;fontColor=default;rounded=0;" parent="1" vertex="1">
                    <mxGeometry x="110" y="500" width="30" height="60" as="geometry"/>
                </mxCell>
                <mxCell id="65" style="edgeStyle=none;html=1;entryX=0.25;entryY=1;entryDx=0;entryDy=0;labelBorderColor=none;strokeColor=#6F0000;strokeWidth=3;fontSize=8;fillColor=#a20025;exitX=0.5;exitY=0;exitDx=0;exitDy=0;rounded=0;" parent="1" source="9" target="33" edge="1">
                    <mxGeometry relative="1" as="geometry"/>
                </mxCell>
                <mxCell id="67" style="edgeStyle=none;html=1;entryX=0;entryY=0.5;entryDx=0;entryDy=0;labelBorderColor=none;strokeColor=#6F0000;strokeWidth=3;fontSize=8;fillColor=#a20025;exitX=0.5;exitY=0;exitDx=0;exitDy=0;rounded=0;" parent="1" source="9" target="26" edge="1">
                    <mxGeometry relative="1" as="geometry"/>
                </mxCell>
                <mxCell id="69" style="edgeStyle=none;html=1;entryX=0;entryY=0.5;entryDx=0;entryDy=0;labelBorderColor=none;strokeColor=#FFFFFF;strokeWidth=3;fontSize=8;exitX=1;exitY=0.5;exitDx=0;exitDy=0;rounded=0;" parent="1" source="9" target="26" edge="1">
                    <mxGeometry relative="1" as="geometry"/>
                </mxCell>
                <mxCell id="70" style="edgeStyle=none;html=1;labelBorderColor=none;strokeColor=#FFFFFF;strokeWidth=3;fontSize=8;exitX=1;exitY=0.5;exitDx=0;exitDy=0;rounded=0;" parent="1" source="9" target="22" edge="1">
                    <mxGeometry relative="1" as="geometry">
                        <mxPoint x="430" y="550" as="sourcePoint"/>
                    </mxGeometry>
                </mxCell>
                <mxCell id="71" style="edgeStyle=none;html=1;entryX=0;entryY=0.75;entryDx=0;entryDy=0;labelBorderColor=none;strokeColor=#6F0000;strokeWidth=3;fontSize=8;fillColor=#a20025;exitX=0.5;exitY=0;exitDx=0;exitDy=0;rounded=0;" parent="1" source="9" target="41" edge="1">
                    <mxGeometry relative="1" as="geometry"/>
                </mxCell>
                <mxCell id="73" style="edgeStyle=none;html=1;entryX=0;entryY=0.5;entryDx=0;entryDy=0;labelBorderColor=none;strokeColor=#6F0000;strokeWidth=3;fontSize=11;fillColor=#a20025;exitX=1;exitY=0.5;exitDx=0;exitDy=0;rounded=0;" parent="1" source="9" target="72" edge="1">
                    <mxGeometry relative="1" as="geometry">
                        <mxPoint x="470" y="590" as="sourcePoint"/>
                    </mxGeometry>
                </mxCell>
                <mxCell id="9" value="GateWay&lt;br&gt;" style="rounded=0;whiteSpace=wrap;html=1;labelBackgroundColor=none;fontColor=default;labelPosition=center;verticalLabelPosition=middle;align=center;verticalAlign=middle;" parent="1" vertex="1">
                    <mxGeometry x="298.75" y="530" width="177.5" height="120" as="geometry"/>
                </mxCell>
                <mxCell id="18" value="AuthServer&lt;br&gt;" style="rounded=0;whiteSpace=wrap;html=1;labelPosition=center;verticalLabelPosition=middle;align=center;verticalAlign=middle;" parent="1" vertex="1">
                    <mxGeometry x="327.5" y="200" width="120" height="60" as="geometry"/>
                </mxCell>
                <mxCell id="19" value="login , regster" style="endArrow=classic;strokeColor=#FFFFFF;entryX=0.25;entryY=1;entryDx=0;entryDy=0;labelPosition=center;verticalLabelPosition=bottom;align=center;verticalAlign=top;fontSize=10;html=1;labelBorderColor=none;strokeWidth=2;rounded=0;" parent="1" target="18" edge="1">
                    <mxGeometry x="0.2827" y="2" width="50" height="50" relative="1" as="geometry">
                        <mxPoint x="140" y="480" as="sourcePoint"/>
                        <mxPoint x="190" y="480" as="targetPoint"/>
                        <mxPoint as="offset"/>
                    </mxGeometry>
                </mxCell>
                <mxCell id="22" value="VitmainServer&lt;br&gt;MineralServer&lt;br&gt;MacronutrientServer&lt;br&gt;" style="rounded=0;whiteSpace=wrap;html=1;labelPosition=center;verticalLabelPosition=middle;align=center;verticalAlign=middle;" parent="1" vertex="1">
                    <mxGeometry x="740" y="560" width="120" height="60" as="geometry"/>
                </mxCell>
                <mxCell id="23" value="" style="endArrow=classic;html=1;strokeColor=#FFFFFF;entryX=0;entryY=0.5;entryDx=0;entryDy=0;exitX=0.5;exitY=0.5;exitDx=0;exitDy=0;exitPerimeter=0;strokeWidth=2;rounded=0;" parent="1" source="3" target="9" edge="1">
                    <mxGeometry width="50" height="50" relative="1" as="geometry">
                        <mxPoint x="150" y="530" as="sourcePoint"/>
                        <mxPoint x="600" y="470" as="targetPoint"/>
                        <Array as="points"/>
                    </mxGeometry>
                </mxCell>
                <mxCell id="26" value="FoodServer&lt;br&gt;" style="rounded=0;whiteSpace=wrap;html=1;fontSize=10;" parent="1" vertex="1">
                    <mxGeometry x="610" y="450" width="70" height="60" as="geometry"/>
                </mxCell>
                <mxCell id="28" value="" style="shape=cylinder3;whiteSpace=wrap;html=1;boundedLbl=1;backgroundOutline=1;size=9;fontSize=10;rounded=0;" parent="1" vertex="1">
                    <mxGeometry x="737.5" y="450" width="30" height="60" as="geometry"/>
                </mxCell>
                <mxCell id="30" value="" style="shape=cylinder3;whiteSpace=wrap;html=1;boundedLbl=1;backgroundOutline=1;size=15;fontSize=10;rounded=0;" parent="1" vertex="1">
                    <mxGeometry x="220" y="195" width="52.5" height="70" as="geometry"/>
                </mxCell>
                <mxCell id="32" value="Kafka" style="rhombus;whiteSpace=wrap;html=1;fontSize=10;strokeWidth=2;perimeterSpacing=2;rounded=0;" parent="1" vertex="1">
                    <mxGeometry x="590" y="190" width="80" height="80" as="geometry"/>
                </mxCell>
                <mxCell id="33" value="RecordService&lt;br&gt;" style="rounded=0;whiteSpace=wrap;html=1;fontSize=10;" parent="1" vertex="1">
                    <mxGeometry x="455" y="330" width="120" height="60" as="geometry"/>
                </mxCell>
                <mxCell id="38" value="" style="endArrow=classic;html=1;labelBorderColor=none;strokeColor=#FFFFFF;fontSize=10;exitX=1;exitY=0.5;exitDx=0;exitDy=0;strokeWidth=2;entryX=0;entryY=0.5;entryDx=0;entryDy=0;rounded=0;" parent="1" source="18" target="32" edge="1">
                    <mxGeometry relative="1" as="geometry">
                        <mxPoint x="300" y="400" as="sourcePoint"/>
                        <mxPoint x="570" y="220" as="targetPoint"/>
                    </mxGeometry>
                </mxCell>
                <mxCell id="39" value="USER_FIRST_CREATION&lt;br style=&quot;font-size: 8px;&quot;&gt;USER_DELETION" style="edgeLabel;resizable=0;html=1;align=center;verticalAlign=middle;fontSize=8;rounded=0;" parent="38" connectable="0" vertex="1">
                    <mxGeometry relative="1" as="geometry">
                        <mxPoint x="-5" y="-25" as="offset"/>
                    </mxGeometry>
                </mxCell>
                <mxCell id="41" value="Sorage server&lt;br&gt;" style="rounded=0;whiteSpace=wrap;html=1;fontSize=10;" parent="1" vertex="1">
                    <mxGeometry x="737.5" y="300" width="120" height="60" as="geometry"/>
                </mxCell>
                <mxCell id="43" value="" style="endArrow=classic;html=1;labelBorderColor=none;strokeColor=#FFFFFF;fontSize=10;entryX=1;entryY=0;entryDx=0;entryDy=0;strokeWidth=2;exitX=0;exitY=1;exitDx=0;exitDy=0;rounded=0;" parent="1" source="32" target="33" edge="1">
                    <mxGeometry relative="1" as="geometry">
                        <mxPoint x="550" y="250" as="sourcePoint"/>
                        <mxPoint x="660" y="410" as="targetPoint"/>
                    </mxGeometry>
                </mxCell>
                <mxCell id="44" value="" style="shape=message;html=1;outlineConnect=0;fontSize=10;rounded=0;" parent="43" vertex="1">
                    <mxGeometry width="20" height="14" relative="1" as="geometry">
                        <mxPoint x="-10" y="-7" as="offset"/>
                    </mxGeometry>
                </mxCell>
                <mxCell id="45" value="" style="endArrow=classic;html=1;labelBorderColor=none;strokeColor=#FFFFFF;fontSize=10;exitX=1;exitY=1;exitDx=0;exitDy=0;strokeWidth=2;entryX=0;entryY=0;entryDx=0;entryDy=0;rounded=0;" parent="1" source="32" target="41" edge="1">
                    <mxGeometry relative="1" as="geometry">
                        <mxPoint x="450" y="490" as="sourcePoint"/>
                        <mxPoint x="790" y="420" as="targetPoint"/>
                    </mxGeometry>
                </mxCell>
                <mxCell id="46" value="" style="shape=message;html=1;outlineConnect=0;fontSize=10;rounded=0;" parent="45" vertex="1">
                    <mxGeometry width="20" height="14" relative="1" as="geometry">
                        <mxPoint x="-10" y="-7" as="offset"/>
                    </mxGeometry>
                </mxCell>
                <mxCell id="47" value="" style="shape=link;html=1;labelBorderColor=none;strokeColor=#FFFFFF;fontSize=11;exitX=0;exitY=0.5;exitDx=0;exitDy=0;entryX=1;entryY=0.5;entryDx=0;entryDy=0;entryPerimeter=0;strokeWidth=2;rounded=0;" parent="1" source="18" target="30" edge="1">
                    <mxGeometry width="100" relative="1" as="geometry">
                        <mxPoint x="250" y="250" as="sourcePoint"/>
                        <mxPoint x="350" y="250" as="targetPoint"/>
                    </mxGeometry>
                </mxCell>
                <mxCell id="48" value="" style="shape=link;html=1;labelBorderColor=none;strokeColor=#FFFFFF;fontSize=10;width=8;exitX=1;exitY=0.5;exitDx=0;exitDy=0;entryX=0;entryY=0.5;entryDx=0;entryDy=0;entryPerimeter=0;strokeWidth=2;rounded=0;" parent="1" source="26" target="28" edge="1">
                    <mxGeometry width="100" relative="1" as="geometry">
                        <mxPoint x="840" y="520" as="sourcePoint"/>
                        <mxPoint x="940" y="520" as="targetPoint"/>
                    </mxGeometry>
                </mxCell>
                <mxCell id="50" value="" style="endArrow=classic;html=1;labelBorderColor=none;strokeColor=#2D7600;strokeWidth=2;fontSize=10;exitX=0.75;exitY=1;exitDx=0;exitDy=0;fillColor=#60a917;rounded=0;" parent="1" source="18" edge="1">
                    <mxGeometry relative="1" as="geometry">
                        <mxPoint x="250" y="480" as="sourcePoint"/>
                        <mxPoint x="150" y="500" as="targetPoint"/>
                    </mxGeometry>
                </mxCell>
                <mxCell id="51" value="AuthToken&lt;br&gt;" style="edgeLabel;resizable=0;html=1;align=center;verticalAlign=middle;strokeWidth=2;fontSize=10;rounded=0;" parent="50" connectable="0" vertex="1">
                    <mxGeometry relative="1" as="geometry"/>
                </mxCell>
                <mxCell id="54" value="" style="endArrow=classic;html=1;labelBorderColor=none;strokeColor=#2D7600;strokeWidth=2;fontSize=10;fillColor=#60a917;entryX=0;entryY=0;entryDx=0;entryDy=0;rounded=0;" parent="1" target="9" edge="1">
                    <mxGeometry relative="1" as="geometry">
                        <mxPoint x="150" y="520" as="sourcePoint"/>
                        <mxPoint x="160" y="510" as="targetPoint"/>
                    </mxGeometry>
                </mxCell>
                <mxCell id="55" value="AuthToken&lt;br&gt;" style="edgeLabel;resizable=0;html=1;align=center;verticalAlign=middle;strokeWidth=2;fontSize=10;rounded=0;" parent="54" connectable="0" vertex="1">
                    <mxGeometry relative="1" as="geometry"/>
                </mxCell>
                <mxCell id="57" value="" style="shape=cylinder3;whiteSpace=wrap;html=1;boundedLbl=1;backgroundOutline=1;size=15;strokeWidth=2;fontSize=10;rounded=0;" parent="1" vertex="1">
                    <mxGeometry x="497.5" y="240" width="35" height="60" as="geometry"/>
                </mxCell>
                <mxCell id="58" value="" style="shape=cylinder3;whiteSpace=wrap;html=1;boundedLbl=1;backgroundOutline=1;size=15;strokeWidth=2;fontSize=10;rounded=0;" parent="1" vertex="1">
                    <mxGeometry x="780" y="180" width="35" height="60" as="geometry"/>
                </mxCell>
                <mxCell id="59" value="" style="shape=link;html=1;labelBorderColor=none;strokeColor=#FFFFFF;strokeWidth=3;fontSize=10;exitX=0.5;exitY=0;exitDx=0;exitDy=0;entryX=0.5;entryY=1;entryDx=0;entryDy=0;entryPerimeter=0;rounded=0;" parent="1" source="33" target="57" edge="1">
                    <mxGeometry width="100" relative="1" as="geometry">
                        <mxPoint x="480" y="500" as="sourcePoint"/>
                        <mxPoint x="580" y="500" as="targetPoint"/>
                    </mxGeometry>
                </mxCell>
                <mxCell id="60" value="" style="shape=link;html=1;labelBorderColor=none;strokeColor=#FFFFFF;strokeWidth=3;fontSize=10;entryX=0.5;entryY=0;entryDx=0;entryDy=0;exitX=0.5;exitY=1;exitDx=0;exitDy=0;exitPerimeter=0;width=2;rounded=0;" parent="1" source="58" target="41" edge="1">
                    <mxGeometry width="100" relative="1" as="geometry">
                        <mxPoint x="530" y="420" as="sourcePoint"/>
                        <mxPoint x="630" y="420" as="targetPoint"/>
                    </mxGeometry>
                </mxCell>
                <mxCell id="61" value="" style="shape=link;html=1;labelBorderColor=none;strokeColor=#001DBC;strokeWidth=3;fontSize=10;exitX=1;exitY=0.5;exitDx=0;exitDy=0;entryX=0;entryY=0.5;entryDx=0;entryDy=0;fillColor=#0050ef;rounded=0;" parent="1" source="33" target="41" edge="1">
                    <mxGeometry width="100" relative="1" as="geometry">
                        <mxPoint x="520" y="490" as="sourcePoint"/>
                        <mxPoint x="620" y="490" as="targetPoint"/>
                    </mxGeometry>
                </mxCell>
                <mxCell id="62" value="" style="shape=link;html=1;labelBorderColor=none;strokeColor=#001DBC;strokeWidth=3;fontSize=10;exitX=0.25;exitY=1;exitDx=0;exitDy=0;entryX=0.5;entryY=0;entryDx=0;entryDy=0;fillColor=#0050ef;rounded=0;" parent="1" source="41" target="26" edge="1">
                    <mxGeometry width="100" relative="1" as="geometry">
                        <mxPoint x="520" y="530" as="sourcePoint"/>
                        <mxPoint x="620" y="530" as="targetPoint"/>
                    </mxGeometry>
                </mxCell>
                <mxCell id="63" value="" style="shape=link;html=1;labelBorderColor=none;strokeColor=#001DBC;strokeWidth=3;fontSize=10;exitX=0.75;exitY=1;exitDx=0;exitDy=0;entryX=0.75;entryY=0;entryDx=0;entryDy=0;fillColor=#0050ef;rounded=0;" parent="1" source="41" target="22" edge="1">
                    <mxGeometry width="100" relative="1" as="geometry">
                        <mxPoint x="530" y="560" as="sourcePoint"/>
                        <mxPoint x="630" y="560" as="targetPoint"/>
                    </mxGeometry>
                </mxCell>
                <mxCell id="72" value="AchievementServer" style="rounded=0;whiteSpace=wrap;html=1;strokeWidth=2;fontSize=11;" parent="1" vertex="1">
                    <mxGeometry x="550" y="665" width="120" height="60" as="geometry"/>
                </mxCell>
                <mxCell id="76" value="ZipKin" style="rounded=0;whiteSpace=wrap;html=1;strokeWidth=2;fontSize=19;" parent="1" vertex="1">
                    <mxGeometry x="1030" y="390" width="210" height="120" as="geometry"/>
                </mxCell>
                <mxCell id="77" value="" style="endArrow=classic;html=1;labelBorderColor=none;strokeColor=#FFFFFF;strokeWidth=3;fontSize=19;exitX=1;exitY=0.5;exitDx=0;exitDy=0;entryX=0;entryY=0.5;entryDx=0;entryDy=0;rounded=0;" parent="1" source="8" target="76" edge="1">
                    <mxGeometry relative="1" as="geometry">
                        <mxPoint x="1040" y="420" as="sourcePoint"/>
                        <mxPoint x="1140" y="420" as="targetPoint"/>
                    </mxGeometry>
                </mxCell>
                <mxCell id="78" value="" style="shape=message;html=1;outlineConnect=0;strokeWidth=2;fontSize=19;rounded=0;" parent="77" vertex="1">
                    <mxGeometry width="20" height="14" relative="1" as="geometry">
                        <mxPoint x="-10" y="-7" as="offset"/>
                    </mxGeometry>
                </mxCell>
                <mxCell id="79" value="Prometheus" style="rounded=0;whiteSpace=wrap;html=1;strokeWidth=2;fontSize=19;" parent="1" vertex="1">
                    <mxGeometry x="1030" y="640" width="210" height="110" as="geometry"/>
                </mxCell>
                <mxCell id="80" value="" style="endArrow=classic;html=1;labelBorderColor=none;strokeColor=#FFFFFF;strokeWidth=3;fontSize=19;exitX=1;exitY=0.5;exitDx=0;exitDy=0;entryX=0;entryY=0.5;entryDx=0;entryDy=0;rounded=0;" parent="1" source="8" target="79" edge="1">
                    <mxGeometry relative="1" as="geometry">
                        <mxPoint x="1080" y="460" as="sourcePoint"/>
                        <mxPoint x="1180" y="460" as="targetPoint"/>
                    </mxGeometry>
                </mxCell>
                <mxCell id="81" value="" style="shape=message;html=1;outlineConnect=0;strokeWidth=2;fontSize=19;rounded=0;" parent="80" vertex="1">
                    <mxGeometry width="20" height="14" relative="1" as="geometry">
                        <mxPoint x="-10" y="-7" as="offset"/>
                    </mxGeometry>
                </mxCell>
                <mxCell id="82" value="Grafana" style="rounded=0;whiteSpace=wrap;html=1;strokeWidth=2;fontSize=19;" parent="1" vertex="1">
                    <mxGeometry x="1365" y="635" width="240" height="120" as="geometry"/>
                </mxCell>
                <mxCell id="83" value="" style="endArrow=classic;html=1;labelBorderColor=none;strokeColor=#FFFFFF;strokeWidth=3;fontSize=19;exitX=1;exitY=0.5;exitDx=0;exitDy=0;entryX=0;entryY=0.5;entryDx=0;entryDy=0;rounded=0;" parent="1" source="79" target="82" edge="1">
                    <mxGeometry relative="1" as="geometry">
                        <mxPoint x="1230" y="480" as="sourcePoint"/>
                        <mxPoint x="1330" y="480" as="targetPoint"/>
                    </mxGeometry>
                </mxCell>
                <mxCell id="84" value="" style="shape=message;html=1;outlineConnect=0;strokeWidth=2;fontSize=19;rounded=0;" parent="83" vertex="1">
                    <mxGeometry width="20" height="14" relative="1" as="geometry">
                        <mxPoint x="-10" y="-7" as="offset"/>
                    </mxGeometry>
                </mxCell>
                <mxCell id="85" value="" style="group;rounded=0;" parent="1" vertex="1" connectable="0">
                    <mxGeometry x="570" y="930" width="220" height="60" as="geometry"/>
                </mxCell>
                <mxCell id="21" value="no token required" style="endArrow=classic;html=1;strokeColor=#FFFFFF;labelPosition=center;verticalLabelPosition=bottom;align=center;verticalAlign=top;movable=1;resizable=1;rotatable=1;deletable=1;editable=1;connectable=1;strokeWidth=3;rounded=0;" parent="85" edge="1">
                    <mxGeometry width="50" height="50" relative="1" as="geometry">
                        <mxPoint y="60" as="sourcePoint"/>
                        <mxPoint x="80" y="60" as="targetPoint"/>
                    </mxGeometry>
                </mxCell>
                <mxCell id="49" value="auth token requerd&lt;br&gt;" style="endArrow=classic;html=1;labelBorderColor=none;strokeColor=#2D7600;fontSize=10;labelPosition=center;verticalLabelPosition=bottom;align=center;verticalAlign=top;fillColor=#60a917;strokeWidth=3;rounded=0;" parent="85" edge="1">
                    <mxGeometry width="50" height="50" relative="1" as="geometry">
                        <mxPoint y="30" as="sourcePoint"/>
                        <mxPoint x="80" y="30" as="targetPoint"/>
                    </mxGeometry>
                </mxCell>
                <mxCell id="56" value="X-User&lt;br&gt;" style="endArrow=classic;html=1;labelBorderColor=none;strokeColor=#6F0000;strokeWidth=3;fontSize=10;fillColor=#a20025;labelPosition=center;verticalLabelPosition=bottom;align=center;verticalAlign=top;rounded=0;" parent="85" edge="1">
                    <mxGeometry width="50" height="50" relative="1" as="geometry">
                        <mxPoint as="sourcePoint"/>
                        <mxPoint x="80" as="targetPoint"/>
                    </mxGeometry>
                </mxCell>
                <mxCell id="74" value="Rest Connection" style="shape=link;html=1;labelBorderColor=none;strokeColor=#001DBC;strokeWidth=3;fontSize=11;labelPosition=center;verticalLabelPosition=bottom;align=center;verticalAlign=top;fillColor=#0050ef;rounded=0;" parent="85" edge="1">
                    <mxGeometry width="100" relative="1" as="geometry">
                        <mxPoint x="120" y="10" as="sourcePoint"/>
                        <mxPoint x="220" y="10" as="targetPoint"/>
                    </mxGeometry>
                </mxCell>
                <mxCell id="75" value="DateBase Connection" style="shape=link;html=1;labelBorderColor=none;strokeColor=#FFFFFF;strokeWidth=3;fontSize=11;labelPosition=center;verticalLabelPosition=bottom;align=center;verticalAlign=top;rounded=0;" parent="85" edge="1">
                    <mxGeometry width="100" relative="1" as="geometry">
                        <mxPoint x="117.5" y="49.99999999999999" as="sourcePoint"/>
                        <mxPoint x="217.5" y="49.99999999999999" as="targetPoint"/>
                    </mxGeometry>
                </mxCell>
                <mxCell id="87" style="edgeStyle=none;html=1;exitX=0.5;exitY=0;exitDx=0;exitDy=0;" edge="1" parent="1" source="86">
                    <mxGeometry relative="1" as="geometry">
                        <mxPoint x="688" y="930" as="targetPoint"/>
                    </mxGeometry>
                </mxCell>
                <mxCell id="86" value="This is a map of all connections between servers" style="text;html=1;strokeColor=none;fillColor=none;align=center;verticalAlign=middle;whiteSpace=wrap;rounded=0;strokeWidth=2;fontSize=19;" parent="1" vertex="1">
                    <mxGeometry x="447.5" y="880" width="480" height="30" as="geometry"/>
                </mxCell>
            </root>
        </mxGraphModel>
    </diagram>
</mxfile>